<svg xmlns="http://www.w3.org/2000/svg" height="24px" viewBox="0 0 95 95" fill="#60ab30">
	<path d="M77,33.3c0,4.3-0.7,8.1-2,11.4c-1.3,3.3-3.3,6.1-5.8,8.3c-2.6,2.3-5.7,4-9.4,5.2c-3.7,1.2-8.1,1.8-13.1,1.8h-6.4v24.3 c0,0.4-0.1,0.7-0.4,1.1c-0.3,0.3-0.7,0.6-1.3,0.8c-0.6,0.2-1.4,0.4-2.4,0.5c-1,0.1-2.2,0.2-3.8,0.2c-1.5,0-2.7-0.1-3.7-0.2 c-1-0.1-1.8-0.3-2.4-0.5c-0.6-0.2-1-0.5-1.2-0.8c-0.2-0.3-0.4-0.7-0.4-1.1V15.7c0-1.8,0.5-3.2,1.4-4.1c1-0.9,2.2-1.4,3.8-1.4h18 c1.8,0,3.5,0.1,5.2,0.2c1.6,0.1,3.6,0.4,5.9,0.9c2.3,0.5,4.6,1.3,6.9,2.5c2.3,1.2,4.3,2.8,6,4.6c1.6,1.9,2.9,4,3.8,6.5 C76.6,27.4,77,30.2,77,33.3z M60.8,34.4c0-2.7-0.5-4.9-1.4-6.6c-0.9-1.7-2.1-3-3.5-3.8c-1.4-0.8-2.8-1.3-4.3-1.6 c-1.5-0.2-3.1-0.3-4.7-0.3h-6.6v25.8h6.9c2.5,0,4.5-0.3,6.2-1c1.7-0.7,3-1.6,4.1-2.8c1.1-1.2,1.9-2.6,2.4-4.3 C60.6,38.2,60.8,36.3,60.8,34.4z"/>
</svg>