<svg xmlns="http://www.w3.org/2000/svg" width="24" height="24" viewBox="0 0 512 512" fill="#60ab30">
	<path d="M342.56 510.334c-14.844-3.702-18.811-6.232-64.97-41.44-21.211-16.179-27.562-15.103-66.643 11.292-29.967 20.239-40.836 24.484-62.687 24.484-19.97 0-33.662-4.537-45.72-15.152-19.148-16.854-27.525-42.998-27.525-85.905 0-40.8 8.331-77.105 25.577-111.46 24.472-48.75 69.61-87.213 113.791-96.962 60.981-13.456 112.916-.079 156.037 40.192 43.12 40.268 67.04 99.885 67.014 167.023-.023 59.53-18.187 96.696-52.273 106.955-10.156 3.056-32.226 3.56-42.6.973zM61.865 226.201c-7.805-2.483-13.622-6.75-25.616-18.792-41.77-41.937-43.305-90.647-3.464-109.934 10.125-4.901 28.392-5.815 37.558-1.878 19.653 8.44 32.552 26.698 43.553 61.644 1.409 4.477 2.59 15.921 2.626 25.433.052 14.049-.79 18.915-4.485 25.938-9.004 17.113-29.3 24.229-50.172 17.589zm361.937 1.453c-22.98-5.854-33.599-31.822-26.57-64.977 8.725-41.145 33.31-69.546 60.173-69.513 16.245.023 24.716 3.604 36.098 15.272 12.346 12.656 15.853 22.611 14.251 40.447-2.135 23.767-26.538 60.31-49.052 73.454-9.15 5.342-25.202 7.787-34.9 5.317zm-244.005-70.186c-27.046-11.815-56.13-64.857-55.862-101.874.157-21.613 8.4-36.368 26.979-48.29 9.675-6.209 11.726-6.717 26.8-6.639 18.05.095 24.842 2.643 35.527 13.328 14.883 14.882 21.538 36.703 21.35 70.004-.148 26.575-3.299 41.113-12.713 58.665-8.38 15.622-26.012 21.826-42.082 14.806zm120.962-2.028c-15.698-10.667-25.62-44.851-23.47-80.854 1.365-22.828 5.454-37.323 14.661-51.973 20.235-32.197 69.49-29.516 89.647 4.88 7.824 13.35 8.904 35.434 2.727 55.77-10.482 34.51-32.685 66.066-52.23 74.233-10.46 4.37-23.098 3.541-31.335-2.056z"/>
	<rect width="70.801" height="666.623" x="-32.494" y="28.715" rx="35.401" ry="36.372" transform="rotate(-44.54)" fill="#ff000f" stroke="#fff" stroke-width="16.983" stroke-linecap="square"/>
</svg>