<svg xmlns="http://www.w3.org/2000/svg" height="24px" viewBox="-207.8 412.2 21.6 17.3" fill="#60ab30">
	<path d="M-187,418c-0.2,0-0.5-0.1-0.6-0.2c-2.5-2.5-5.9-3.9-9.4-3.9s-6.9,1.4-9.4,3.9c-0.3,0.3-0.8,0.3-1.1,0 c-0.3-0.3-0.3-0.8,0-1.1c2.8-2.8,6.6-4.4,10.5-4.4s7.7,1.6,10.5,4.3c0.3,0.3,0.3,0.8,0,1.1C-186.7,418-186.8,418-187,418z M-189.4,420.8c0.3-0.3,0.3-0.8,0-1.1c-2-2.2-4.8-3.2-7.6-3.2s-5.6,1.1-7.6,3.2c-0.3,0.3-0.3,0.8,0,1.1c0.3,0.3,0.8,0.3,1.1,0 c1.8-1.7,4.1-2.7,6.5-2.7s4.6,0.9,6.3,2.6c0.1,0.1,0.3,0.2,0.6,0.2C-189.9,421.1-189.6,420.9-189.4,420.8z M-200.3,423.9 c0.9-0.9,2-1.4,3.3-1.4s2.4,0.5,3.3,1.4c0.3,0.3,0.8,0.3,1.1,0c0.3-0.3,0.3-0.8,0-1.1c-1.1-1.1-2.7-1.8-4.4-1.8s-3.3,0.7-4.4,1.8 c-0.3,0.3-0.3,0.8,0,1.1c0.1,0.1,0.3,0.2,0.6,0.2C-200.6,424.1-200.4,424.1-200.3,423.9z M-197,426.2c-0.9,0-1.7,0.8-1.7,1.7 s0.8,1.7,1.7,1.7s1.7-0.8,1.7-1.7S-196.1,426.2-197,426.2z"/>
</svg>