<svg xmlns="http://www.w3.org/2000/svg" height="24px" viewBox="-243 408.9 24 24" fill="#60ab30">
	<circle cx="-226.8" cy="412.5" r="1.2"/>
	<path d="M-221.2,408.9h-19.5c-1.2,0-2.2,1-2.2,2.2v19.5c0,1.2,1,2.2,2.2,2.2h19.5c1.2,0,2.2-1,2.2-2.2v-19.5 C-219,409.9-220,408.9-221.2,408.9z M-241.3,416.1h20.7v14.5c0,0.3-0.3,0.6-0.6,0.6h-19.5c-0.3,0-0.6-0.3-0.6-0.6V416.1z M-240.8,410.5h19.5c0.3,0,0.6,0.3,0.6,0.6v3.4h-20.7v-3.4C-241.3,410.8-241.1,410.5-240.8,410.5z"/>
	<path d="M-238.7,413.3h2.8c0.5,0,0.8-0.4,0.8-0.8c0-0.5-0.4-0.8-0.8-0.8h-2.8c-0.5,0-0.8,0.4-0.8,0.8 C-239.5,413-239.1,413.3-238.7,413.3z"/>
	<path d="M-231.8,425.5v1.6h-0.9c-0.5,0-0.8,0.4-0.8,0.8s0.4,0.8,0.8,0.8h3.5c0.5,0,0.8-0.4,0.8-0.8s-0.4-0.8-0.8-0.8 h-0.9v-1.6c1.4-0.4,2.4-1.7,2.4-3.2v-2.8c0-0.5-0.4-0.8-0.8-0.8h-4.9c-0.5,0-0.8,0.4-0.8,0.8v2.8 C-234.3,423.8-233.2,425.1-231.8,425.5z M-231,423.9c-0.9,0-1.6-0.7-1.6-1.6v-2h3.2v2C-229.4,423.2-230.1,423.9-231,423.9z"/>
	<circle cx="-223.3" cy="412.5" r="1.2"/>
</svg>