<svg xmlns="http://www.w3.org/2000/svg" height="24px" viewBox="-271.2 394.4 50.1 49.3" fill="#60ab30">
	<path d="M-246,405c-7.7,0-14,6.3-14,14c0,7.7,6.3,14,14,14c7.7,0,14-6.3,14-14C-231.9,411.3-238.2,405-246,405z M-246,407c6,0,11,4.5,11.9,10.3c-1.9,0.1-4.1,0.5-6.4,1c-2.7,0.6-5.6,1.2-8,1.2c-4.4,0-7.9-1.7-9.3-2.4 C-256.9,411.4-251.9,407-246,407z"/>
	<rect width="48" height="48" x="-270" y="395" rx="6" stroke="#60ab30" stroke-width="3" style="fill: none;"/>
	<circle cx="-246" cy="419" r="18" stroke="#60ab30" stroke-width="3" style="fill: none;"/>
</svg>