<svg xmlns="http://www.w3.org/2000/svg" height="24px" viewBox="0 0 847 847" fill="#60ab30" clip-rule="evenodd" fill-rule="evenodd">
	<g style="transform: scale(1.2) translate(-70px, -70px);">
		<path d="M583 458l0 161c0,58 -47,105 -105,105l-241 0c-58,0 -105,-47 -105,-105l0 -161c0,-57 47,-104 105,-104l241 0c58,0 105,47 105,104zm-297 -255c-31,-32 17,-79 48,-48l97 96 165 -165c32,-31 79,17 48,48l-173 173 225 0c37,0 67,30 67,68l0 328c0,37 -30,68 -67,68l-545 0c-37,0 -68,-31 -68,-68l0 -328c0,-38 31,-68 68,-68l239 0 -104 -104zm427 373c0,21 -18,38 -39,38 -21,0 -38,-17 -38,-38 0,-21 17,-38 38,-38 21,0 39,17 39,38zm0 -106c0,21 -18,38 -39,38 -21,0 -38,-17 -38,-38 0,-21 17,-38 38,-38 21,0 39,17 39,38z"/>
	</g>
</svg>