<?xml version="1.0" encoding="utf-8"?>
<svg version="1.1" id="Calque_1" xmlns="http://www.w3.org/2000/svg" xmlns:xlink="http://www.w3.org/1999/xlink" x="0px" y="0px"
	 viewBox="-247 388.1 100 65.5" style="enable-background:new -247 388.1 100 65.5;" xml:space="preserve">
<style type="text/css">
	.st0{fill:#41479B;}
	.st1{fill:#F5F5F5;}
	.st2{fill:#FF4B55;}
</style>
<path class="st0" d="M-154.5,388.1h-85c-4.1,0-7.5,3.4-7.5,7.5v50.5c0,4.1,3.4,7.5,7.5,7.5h85c4.1,0,7.5-3.4,7.5-7.5v-50.5
	C-147,391.5-150.4,388.1-154.5,388.1z"/>
<path class="st1" d="M-147.1,394.4c-0.6-3.5-3.7-6.3-7.4-6.3h-1.9l-31.9,20.9v-20.9h-17.2v20.9l-31.9-20.9h-1.9
	c-3.7,0-6.8,2.7-7.4,6.3l27.3,17.9H-247v17.2h27.4l-27.3,17.9c0.6,3.5,3.7,6.3,7.4,6.3h1.9l31.9-20.9v20.9h17.2v-20.9l31.9,20.9h1.9
	c3.7,0,6.8-2.7,7.4-6.3l-27.3-17.9h27.4v-17.2h-27.4L-147.1,394.4z"/>
<g>
	<polygon class="st2" points="-191.8,388.1 -202.2,388.1 -202.2,415.7 -247,415.7 -247,426.1 -202.2,426.1 -202.2,453.6 
		-191.8,453.6 -191.8,426.1 -147,426.1 -147,415.7 -191.8,415.7 	"/>
	<path class="st2" d="M-242.2,453.2l36.4-23.7h-6.3l-33.1,21.5C-244.4,452-243.3,452.7-242.2,453.2z"/>
	<path class="st2" d="M-179.3,429.5h-6.3l35.3,22.9c1-0.6,1.8-1.5,2.4-2.6L-179.3,429.5z"/>
	<path class="st2" d="M-246.2,392.3l30.8,20h6.3l-34.9-22.7C-244.9,390.3-245.7,391.2-246.2,392.3z"/>
	<path class="st2" d="M-182,412.3l33.2-21.6c-0.8-0.9-1.9-1.7-3.1-2.1l-36.5,23.7H-182z"/>
</g>
</svg>
