<svg xmlns="http://www.w3.org/2000/svg" viewBox="-41 253.2 512 335.4">
	<path fill="#c8414b" d="M-41 550.3c0 21.2 17.2 38.3 38.3 38.3h435.3c21.2 0 38.3-17.2 38.3-38.3V518H-41v32.3zM432.7 253.2H-2.7c-21.2 0-38.3 17.2-38.3 38.3v32.3h512v-32.3c0-21.2-17.2-38.3-38.3-38.3z"/>
	<path fill="#ffd250" d="M-41 323.8h512V518H-41z"/>
	<path fill="#c8414b" d="M175.3 420.9l7.5-33.7c.7-3.1-1.7-6-4.8-6h-5.3c-3.2 0-5.5 2.9-4.8 6l7.4 33.7z"/>
	<path fill="#f5f5f5" d="M166.4 403.2h17.7v75h-17.7z"/>
	<path fill="#fab446" d="M162 394.4h26.5v8.8H162z"/>
	<path fill="#c8414b" d="M144.4 420.9h44.1v8.8h-44.1zM188.5 456.2l-26.5-8.8v-8.9l26.5 8.9zM42.9 420.9l7.5-33.7c.7-3.1-1.7-6-4.8-6h-5.3c-3.2 0-5.5 2.9-4.8 6l7.4 33.7z"/>
	<path fill="#f5f5f5" d="M73.8 394.4c-4.9 0-8.8 4-8.8 8.8v57.4c0 10.7 10 30.9 44.1 30.9s44.1-20.2 44.1-30.9v-57.4c0-4.9-4-8.8-8.8-8.8H73.8z"/>
	<path fill="#c8414b" d="M109.1 438.5H64.9v-35.3c0-4.9 4-8.8 8.8-8.8H109v44.1zM109.1 438.5h44.1v22.1c0 12.2-9.9 22.1-22.1 22.1-12.2 0-22.1-9.9-22.1-22.1v-22.1z"/>
	<path fill="#fab446" d="M64.9 438.5H109v22.1c0 12.2-9.9 22.1-22.1 22.1-12.2 0-22.1-9.9-22.1-22.1v-22.1z"/>
	<path fill="#c8414b" d="M100.2 478.2v-39.6h-8.8v43.7c3.3-.7 6.3-2.2 8.8-4.1zM82.6 482.2v-43.7h-8.8v39.6c2.5 2 5.5 3.5 8.8 4.1z"/>
	<path fill="#ffb441" d="M73.8 420.9h26.5v8.8H73.8z"/>
	<path fill="#fab446" d="M73.8 403.2h26.5v8.8H73.8z"/>
	<path fill="#fab446" d="M78.2 408.5h17.7v16H78.2z"/>
	<path fill="#f5f5f5" d="M34 403.2h17.7v75H34z"/>
	<path fill="#fab446" d="M29.6 473.9h26.5v8.8H29.6zM29.6 394.4h26.5v8.8H29.6z"/>
	<path fill="#5064aa" d="M25.2 482.7h35.3v8.8H25.2z"/>
	<path fill="#fab446" d="M166.4 473.9h26.5v8.8h-26.5z"/>
	<path fill="#5064aa" d="M157.6 482.7h35.3v8.8h-35.3z"/>
	<path fill="#fab446" d="M82.6 385.6h53v8.8h-53z"/>
	<path fill="#ffb441" d="M104.7 359.1h8.8v26.5h-8.8z"/>
	<path fill="#f5f5f5" d="M100.2 372.3c-7.3 0-13.2-5.9-13.2-13.2 0-7.3 5.9-13.2 13.2-13.2 7.3 0 13.2 5.9 13.2 13.2.1 7.3-5.9 13.2-13.2 13.2zm0-17.6c-2.4 0-4.4 2-4.4 4.4 0 2.4 2 4.4 4.4 4.4s4.4-2 4.4-4.4c.1-2.4-1.9-4.4-4.4-4.4z"/>
	<path fill="#f5f5f5" d="M117.9 372.3c-7.3 0-13.2-5.9-13.2-13.2 0-7.3 5.9-13.2 13.2-13.2 7.3 0 13.2 5.9 13.2 13.2 0 7.3-5.9 13.2-13.2 13.2zm0-17.6c-2.4 0-4.4 2-4.4 4.4 0 2.4 2 4.4 4.4 4.4 2.4 0 4.4-2 4.4-4.4 0-2.4-2-4.4-4.4-4.4z"/>
	<path fill="#f5f5f5" d="M135.6 381.2c-7.3 0-13.2-5.9-13.2-13.2 0-7.3 5.9-13.2 13.2-13.2 7.3 0 13.2 5.9 13.2 13.2 0 7.2-5.9 13.2-13.2 13.2zm0-17.7c-2.4 0-4.4 2-4.4 4.4 0 2.4 2 4.4 4.4 4.4 2.4 0 4.4-2 4.4-4.4 0-2.4-2-4.4-4.4-4.4zM82.6 381.2c-7.3 0-13.2-5.9-13.2-13.2 0-7.3 5.9-13.2 13.2-13.2 7.3 0 13.2 5.9 13.2 13.2 0 7.2-5.9 13.2-13.2 13.2zm0-17.7c-2.4 0-4.4 2-4.4 4.4 0 2.4 2 4.4 4.4 4.4s4.4-2 4.4-4.4c0-2.4-2-4.4-4.4-4.4z"/>
	<path fill="#fab446" d="M135.6 456.2v4.4c0 2.4-2 4.4-4.4 4.4s-4.4-2-4.4-4.4v-4.4h8.8m8.8-8.8h-26.5v13.2c0 7.3 5.9 13.2 13.2 13.2 7.3 0 13.2-5.9 13.2-13.2l.1-13.2z"/>
	<path d="M131.1 429.7c-4.9 0-8.8-4-8.8-8.8v-8.8c0-4.9 4-8.8 8.8-8.8 4.9 0 8.8 4 8.8 8.8v8.8c.1 4.9-3.9 8.8-8.8 8.8z" fill="#ffa0d2"/>
	<circle fill="#5064aa" cx="109.1" cy="438.5" r="13.2"/>
	<path fill="#fab446" d="M104.7 341.4h8.8v26.5h-8.8z"/>
	<path fill="#c8414b" d="M82.6 385.6l-8.8-8.8 5.2-5.2c8-8 18.8-12.5 30.1-12.5s22.1 4.5 30.1 12.5l5.2 5.2-8.8 8.8h-53z"/>
	<circle fill="#ffd250" cx="109.1" cy="376.8" r="4.4"/>
	<circle fill="#ffd250" cx="91.4" cy="376.8" r="4.4"/>
	<circle fill="#ffd250" cx="126.7" cy="376.8" r="4.4"/>
	<path fill="#c8414b" d="M29.6 420.9h44.1v8.8H29.6zM29.6 456.2l26.5-8.8v-8.9l-26.5 8.9z"/>
</svg>