<?xml version="1.0" encoding="utf-8"?>
<svg version="1.2" baseProfile="tiny" id="Calque_1"
	 xmlns="http://www.w3.org/2000/svg" xmlns:xlink="http://www.w3.org/1999/xlink" x="0px" y="0px" viewBox="-284 407.8 26.1 26.1"
	 xml:space="preserve">
<path fill="#B2B2B2" d="M-271,407.8c-7.1,0-12.9,5.8-12.9,12.9c0,7.2,5.8,13,12.9,13c7.2,0,13-5.9,13-13
	C-258,413.7-263.8,407.8-271,407.8z M-271,431.4c-5.8,0-10.5-4.8-10.5-10.6c0-5.8,4.7-10.5,10.5-10.5c5.8,0,10.6,4.7,10.6,10.5
	C-260.4,426.6-265.2,431.4-271,431.4z"/>
<path fill="#B2B2B2" d="M-268.2,421.7l0.4-2.6h-2.4v-1.6c0-0.7,0.3-1.4,1.4-1.4h1.1v-2.2c0,0-1-0.2-2-0.2c-2,0-3.3,1.2-3.3,3.5v2
	h-2.2v2.6h2.2v6.2c0.5,0.1,2.3,0.1,2.7,0v-6.2L-268.2,421.7L-268.2,421.7z"/>
</svg>
