<?xml version="1.0" encoding="utf-8"?>
<svg version="1.2" baseProfile="tiny" id="Calque_1"
	 xmlns="http://www.w3.org/2000/svg" xmlns:xlink="http://www.w3.org/1999/xlink" x="0px" y="0px" viewBox="-284 407.8 26.1 26.1"
	 xml:space="preserve">
<path fill="#B2B2B2" d="M-265.4,407.8h-11.1c-4.2,0-7.5,3.4-7.5,7.5v11.1c0,4.2,3.4,7.5,7.5,7.5h11.1c4.2,0,7.5-3.4,7.5-7.5v-11.1
	C-257.8,411.2-261.2,407.8-265.4,407.8 M-260.2,426.6c0,2.7-2.2,5.1-5.1,5.1h-11.3c-2.7,0-5.1-2.2-5.1-5.1v-11.3
	c0-2.7,2.2-5.1,5.1-5.1h11.3c2.7,0,5.1,2.2,5.1,5.1C-260.2,415.3-260.2,426.6-260.2,426.6z"/>
<path fill="#B2B2B2" d="M-271.2,413.9c-3.8,0-6.8,3.1-6.8,6.8c0,3.8,3.1,6.8,6.8,6.8c3.8,0,6.8-3.1,6.8-6.8
	C-264.3,416.9-267.3,413.9-271.2,413.9 M-271.2,425.3c-2.5,0-4.5-2-4.5-4.5s2-4.5,4.5-4.5s4.5,2,4.5,4.5
	C-266.6,423.2-268.7,425.3-271.2,425.3"/>
<path fill="#B2B2B2" d="M-264,412c-0.8,0-1.6,0.7-1.6,1.6c0,0.8,0.7,1.6,1.6,1.6c0.8,0,1.6-0.7,1.6-1.6S-263.1,412-264,412"/>
</svg>
