<svg xmlns="http://www.w3.org/2000/svg" viewBox="0 0 246.7 62.8"><radialGradient id="a" cx="-9.9613" cy="22.6458" r="61.1579" gradientUnits="userSpaceOnUse"><stop offset=".1698" stop-color="#9ad1f0"/><stop offset=".573" stop-color="#0f99d6"/><stop offset="1" stop-color="#334e9d"/></radialGradient><radialGradient id="b" cx="43.7403" cy="18.5213" r="42.4974" gradientUnits="userSpaceOnUse"><stop offset="0" stop-color="#e7e67c"/><stop offset=".4719" stop-color="#b1cc2b"/><stop offset=".7303" stop-color="#6cb640"/><stop offset="1" stop-color="#175135"/></radialGradient><radialGradient id="c" cx="47.0233" cy="1.0667" r="37.0635" gradientUnits="userSpaceOnUse"><stop offset="0" stop-color="#eff0b8"/><stop offset=".4719" stop-color="#f2bc22"/><stop offset=".7303" stop-color="#e94e2d"/><stop offset="1" stop-color="#c72623"/></radialGradient><path fill="url(#a)" d="M15.7 51C3.3 38.7 2.9 18.4 16 5.3c1.8-1.8 5-3.9 7.1-5.3-4.6 1.5-10 4.6-13.7 8.2-12.5 12.5-12.5 32.9 0 45.4 11.3 11.4 30.1 12 42.7 2.9-12.2 5.8-26.8 4.1-36.4-5.5z"/><path fill="url(#b)" d="M23.4 41.8c6.4-12.6 1-23.5-7-31-8 10.8-7.8 26.1 2.4 36.3 10.8 10.8 28.2 10.8 39 0 5-5 6.9-10.7 7.6-16.9-22.9-6.8-42 11.6-42 11.6z"/><path fill="url(#c)" d="M31.4 29.1C46 21.8 57 24.3 65.8 27.6c0-7-2.7-14.1-8.1-19.4C47-2.6 29.5-2.6 18.8 8.1l-.7.7c12 9.1 13.3 20.3 13.3 20.3z"/><path fill="#2990CF" d="M98.3 27.9c2-.1 6.8-.2 8.7-.2.4 1.4.5 4.8.5 6.9v16.1c-.8.6-2.2 1.6-3.5 2.1-2 .7-4.8 1.4-8.1 1.4-.7 0-1.5 0-2.2-.1-9.7-.7-16.3-6.1-16.3-22.8 0-9.8 2.9-15.9 6.1-19.4 3.1-3.3 7.5-4.8 13.2-4.8 5.6 0 8.7 2.2 9.3 3.4 0 1.5-.4 2.4-1 3.1h-.3c-.5.1-1.1-.3-1.9-.6-1.7-.6-3.7-1-5.8-1-8 .2-13 5.9-13 18.9 0 14.5 5.9 18.4 12.4 18.4 2.4 0 4.6-.7 5.3-1.4V32.7c-1.7 0-3.8-.1-4.1-4.3.1 0 .1-.5.7-.5z"/><path fill="#D95A2D" d="M117.5 13.5c2.8 0 3.5-1.7 3.5-4.1.1-2.4-.4-3.7-3.1-3.7-2.4 0-3.6 1.3-3.6 3.8 0 2.7.8 4 3.2 4z"/><path fill="#2990CF" d="M114.5 22.7c.1 1.8.1 3.9.1 7v12c0 4.1-.1 8.2-.1 11.6 3.8-.1 4.8-.1 5.2-.7.6-1 .8-2 .8-3.6V25.9c0-2.9-.1-3.9-.5-4.8-2.7 0-4.9.2-5.5 1.6zM144.3 49.6c0 .6 0 1.3-.1 1.9-.1.5-.5 1-1 1.4-1.3.8-3.6 1.3-5.7 1.3-6.3 0-7.5-5.9-7.5-11.4V25.9c-2.2 0-3.3-.3-4.1-.7 0-2.1.1-1.8.6-2.4 1-.8 3.1-1 4.1-1.5l.3-6.1c.5-1.4 1.9-2.5 5.1-2.7-.1 3.1-.1 6-.1 8.8h8.8c-.2 3.4-.6 4.1-1.6 4.4-.5.1-1.1.1-1.6.1-1.8.1-2.7.1-5.6.1-.1 3.1-.1 6.3-.1 9.2 0 3 .1 5.6.1 7.9.3 3.8.9 6.5 3.6 6.5 1 .1 4.1-.9 4.7-1.4 0 .4.1.9.1 1.5zM169.7 47.4c.2.6.3 1.9.4 2.7-.1 1.4-2 2.8-3.9 3.3-1 .3-3.1.7-5.2.7-3.2 0-6.6-.6-9.2-3.3-2.4-2.4-3.6-6.7-3.6-12.4 0-13.1 5.6-18 13.1-18 6.1 0 9.2 3.7 9.9 9.6.1 1 .1 2.1.1 3.3 0 1.4-.1 2.9-.4 4-.7.5-2.9 1.3-4.8 1.6-2.1.3-5.6.4-8.8.4-1.1 0-2 0-3.1-.1.1 7.5 3.3 9.9 8 9.9 2.9-.1 5.4-.6 7.5-1.7zM160 24.9c-2.7.4-5.3 3.5-5.6 10.1h2.6c2.7 0 5.4-.1 6.7-.2.6-.1 1.2-.1 1.6-.4.2-.5.3-1.4.3-2.2 0-.5-.1-1-.1-1.5-.3-3.8-1.8-5.8-4.9-5.8-.2-.1-.4-.1-.6 0zM187.8 20.5c4.1.3 5.8 1.9 6.1 2.7 0 .9-.5 2.3-1 3.1-1-.2-2-.3-3.1-.7-1-.4-2.1-.6-3.3-.6-2.8 0-4.6 1.4-4.6 3.5 0 1.2.5 2.2 2.2 3.5 1.7 1.4 4.8 3.4 6.9 5.1 2.9 2.3 4 4.6 4 7.4 0 6.3-5.1 9.5-11.4 9.5-4.2 0-7.8-1.2-8.5-2.9 0-1.1.4-2.5 1.1-3.4h.3c.5 0 1.2.2 1.8.5 1.4.6 3.3 1.1 5.2 1.1.4 0 .9-.1 1.3-.1 2.4-.3 3.9-1.8 3.9-4.1 0-1.6-.8-2.9-2.9-4.4-1.8-1.3-3.9-2.9-5.5-4.1l-1.6-1.4c-2-2-3-4.1-3-6.4 0-5.2 4.2-8.4 10.3-8.4.6 0 1.3.1 1.8.1z"/><path fill="#5EAC39" d="M203.1 45.8c3.1 0 3.6 1.3 3.5 3.8-.1 2.4-.8 4.2-4 4.2-2.7 0-3.5-1.3-3.5-4.1 0-2.5 1.2-3.9 4-3.9zM231.7 7.3c-.1.5-.1 1-.3 1.5-.3.6-.5 1-.8 1.4-.2.1-.8-.1-1.4-.3-.7-.2-1.8-.3-2.7-.3-3.1 0-5.8 1.4-6.1 7.2-.1 1.4-.1 2.9-.1 4.4h3.7c1.5 0 3 0 3.9-.1-.2 3.2-.5 3.9-1.5 4.2-.1.1-.4.2-.7.3-1.4.1-3.3.1-5.4.1 0 7.7.1 18.7.1 26 0 .3 0 1.1-.5 1.3-1.1.2-3.1.3-3.9.3-.5 0-1-.1-1.5-.1-.1-.4-.1-1-.1-1.6 0-2.7.1-5.5.1-8.3 0-5.6-.1-11.4-.1-17.5-2.2-.1-3.5-.3-4.2-.8.3-2.5.5-2.9 1.6-3.1.5-.1 1.4-.3 2.7-.6 0-1.8.1-3.5.3-5.1.7-9 7-11.2 11.8-11.2 2.8 0 4.5.6 5.1 1.3.1.3 0 .7 0 1zM236.8 28.3V50c0 1.2-.1 2-.6 2.7-.9.6-1.7.7-5.4.7.1-3.7.1-8 .1-13.3l.1-11.5c0-2.2-.4-3.7-.9-5.1.4-.4 1.2-.9 2.8-1.6.2-.1.3-.1.5-.1 1.2 0 1.8.9 2.1 2 1.6-1.4 3.2-2.2 4.6-2.7 1.3-.4 2.4-.7 3.7-.5 1.8.2 2.7.7 2.9 1.7 0 1-.3 2.7-1.1 3.9-.3.1-.3.1-.6.1-.5 0-1.1-.1-1.6-.1-.5-.1-.9-.1-1.2-.1-2.3 0-4 .8-5.4 2.2z"/></svg>