<svg xmlns="http://www.w3.org/2000/svg" viewBox="-2 7.6 23.8 14.8">
	<path fill="#FFA000" d="M.1 7.5C-1 7.5-2 8.6-2 9.6v10.6c0 1.2 1 2.1 2.1 2.1h19.6c1.2 0 2.1-1 2.1-2.1V9.6c0-1.1-1-2.1-2.1-2.1H.1zm19.6 1.1c.6 0 1 .5 1 1.1v10.6c0 .6-.4 1-1 1H.1c-.6 0-1-.4-1-1V9.6c0-.6.4-1.1 1-1.1h19.6zM1.1 10.8c0 .2 0 .4.2.5l4 3.7-4 3.5c-.2.2-.2.5 0 .7.2.2.5.3.8 0l4-3.4L8.4 18c.8.8 2.1.8 3 0l2.4-2.2 4 3.5c.2.2.5.1.7 0 .2-.3.2-.6 0-.8l-4-3.5 4-3.7c.2-.2.2-.5 0-.7-.2-.2-.6-.2-.8 0l-7 6.6c-.3.4-1 .5-1.4.2l-.2-.2-7-6.6c-.4-.3-.8 0-1 .2z"/>
</svg>