<svg xmlns="http://www.w3.org/2000/svg" height="100" viewBox="0 0 30 47" fill="#ffa000">
	<g transform="translate(-38.000000, -30.000000)" fill-rule="evenodd">
		<path d="M65.5500862,53.2186612 C67.0990567,50.8581447 68,48.0342857 68,45 C68,36.7157288 61.2842712,30 53,30 C44.7157288,30 38,36.7157288 38,45 C38,47.7488608 38.739418,50.3250212 40.0302075,52.5404349 L40.0127262,52.5404349 L52.9657196,76.3722925 L65.5500862,53.2186612 Z M53,51 C56.3137085,51 59,48.3137085 59,45 C59,41.6862915 56.3137085,39 53,39 C49.6862915,39 47,41.6862915 47,45 C47,48.3137085 49.6862915,51 53,51 Z"/>
	</g>
</svg>