<?xml version="1.0" encoding="utf-8"?>
<svg version="1.1" id="Calque_1" xmlns="http://www.w3.org/2000/svg" xmlns:xlink="http://www.w3.org/1999/xlink" x="0px" y="0px"
	 viewBox="-284 407.8 26.1 26.1" style="enable-background:new -284 407.8 26.1 26.1;" xml:space="preserve">
<style type="text/css">
	.st0{fill:#B2B2B2;}
</style>
<path class="st0" d="M-271,407.9c-7.1,0-12.9,5.8-12.9,12.9c0,7.2,5.8,13,12.9,13c7.2,0,13-5.9,13-13
	C-258,413.8-263.8,407.9-271,407.9z M-271,431.5c-5.8,0-10.5-4.8-10.5-10.6c0-5.8,4.7-10.5,10.5-10.5s10.6,4.7,10.6,10.5
	C-260.4,426.7-265.2,431.5-271,431.5z"/>
<path class="st0" d="M-271.9,423.2c-0.4,2-0.8,3.9-2.2,4.9c-0.4-3,0.6-5.2,1.1-7.6c-0.8-1.4,0.1-4.2,1.8-3.5
	c2.1,0.8-1.9,5.2,0.8,5.7c2.8,0.6,3.9-4.9,2.2-6.6c-2.5-2.5-7.3-0.1-6.7,3.6c0.1,0.9,1.1,1.2,0.4,2.4c-1.6-0.4-2.1-1.6-2-3.3
	c0.1-2.8,2.5-4.7,4.9-5c3-0.3,5.9,1.1,6.2,3.9c0.4,3.2-1.4,6.7-4.6,6.4C-270.9,424-271.3,423.6-271.9,423.2z"/>
</svg>
