<svg xmlns="http://www.w3.org/2000/svg" height="24px" viewBox="0 0 100 100" fill="#60ab30">
	<path d="M97.75,58.923c-1.983,0.968-4.387,0.146-5.355-1.839l-9.001-17.471v49.31c0,2.396-1.942,4.339-4.339,4.339 s-4.339-1.943-4.339-4.339V63.631h-1.942V88.89c0,2.396-1.942,4.339-4.339,4.339c-2.396,0-4.339-1.942-4.339-4.339V39.613 l-5.181,10.008l4.782,22.736h-6.591V88.89c0,2.396-1.942,4.339-4.339,4.339c-2.396,0-4.338-1.942-4.338-4.339V72.357h-1.942v16.565 c0,2.396-1.942,4.339-4.338,4.339c-2.397,0-4.339-1.943-4.339-4.339V72.357H31.05l1.015-4.915 c-0.136-0.167-6.683-12.817-6.683-12.817l4.495,20.981h-4.495v14.529c0,1.692-1.372,3.065-3.065,3.065 c-1.693,0-3.065-1.373-3.065-3.065V75.606h-1.394v14.529c0,1.692-1.372,3.065-3.065,3.065s-3.065-1.373-3.065-3.065V75.606H7.607 l4.122-20.981L5.375,66.931c-0.488,1.003-1.933,2.149-3.783,1.3c-1.417-0.652-1.987-2.367-1.303-3.769l4.607-9.494 c2.511-5.192,4.204-8.757,9.204-8.757h8.911c5,0,6.693,3.564,9.204,8.757l1.701,3.506l3.894-18.86l-6.135,11.884 c-1.647-3.182-3.235-5.35-6.177-5.956l2.641-5.443c3.554-7.35,5.95-12.395,13.029-12.395h12.607c2.389,0,5.084,1.018,5.791,1.619 c-2.099,1.683-3.762,5.508-3.762,5.508l0.356,1.697c2.662-5.289,5.734-8.824,11.269-8.824h12.607 c7.079,0,9.306,5.045,12.859,12.395l6.7,13.492C100.564,55.573,99.733,57.954,97.75,58.923z M47.473,26.042 c5.332,0,9.652-4.321,9.652-9.652c0-5.33-4.32-9.651-9.652-9.651c-5.331,0-9.652,4.321-9.652,9.651 C37.821,21.721,42.143,26.042,47.473,26.042z M73.729,26.042c5.331,0,9.651-4.321,9.651-9.652c0-5.33-4.32-9.651-9.651-9.651 s-9.651,4.321-9.651,9.651C64.078,21.721,68.398,26.042,73.729,26.042z M18.555,45.037c3.766,0,6.819-3.053,6.819-6.818 S22.321,31.4,18.555,31.4c-3.766,0-6.819,3.053-6.819,6.818S14.79,45.037,18.555,45.037z"/>
</svg>