<svg xmlns="http://www.w3.org/2000/svg" viewBox="0 0 661.4 537.4">
	<path d="M441.8.3V0h31l11.4 2.3a121.1 121.1 0 0 1 38.4 14.1 170 170 0 0 1 15.7 9.8c4.6 3.2 8.8 6.7 12.5 10.3 3.7 3.7 9.4 4.7 17.1 2.9 7.8-1.8 16.1-4.3 25-7.5a336.3 336.3 0 0 0 45.5-20l.2-.2.5-.3.6-.3.6-.3.6-.3.2-.2.1-.1.2-.1.1-.2.6-.2.6-.1v.9l-.3.9-.3.9-.3.9-.3.6-.3.6-.3.8-.6 2.4A149.1 149.1 0 0 1 606.8 67c-4.2 3.7-7 6.3-8.5 7.8-1.4 1.5-3 2.9-5 4.2l-3 2-.6.2-.6.3-.1.2-.2.1-.2.1-.1.2-.6.3-.6.3-.1.2-.2.1-.2.1-.1.2-.1.2-.2.1-.2.1-.1.2h3l16.7-3.6c11.1-2.4 21.7-5.2 31.9-8.6l16-5.4 1.8-.6 1-.3.5-.3.6-.3.6-.3.6-.3 1.2-.2h1.2V65l-.3.1-.3.2-.1.2-.2.1-.2.1v.2l-.2.2-.2.1-.2.1v.2l-.2.2-.2.1-.3.6-.3.6-.2.1-7.5 10.2a83.8 83.8 0 0 1-9.7 11.9 300 300 0 0 1-35.4 34 28.2 28.2 0 0 0-11.4 22.4 378.8 378.8 0 0 1-16 109.8A398.3 398.3 0 0 1 480 426.8l-15.5 15.5a410 410 0 0 1-33.7 26.8c-7.9 5.7-15 10.4-21.6 14.2l-23.8 13c-9.2 4.8-19.2 9.3-29.9 13.5-10.7 4.2-22 8-34 11.6-11.9 3.6-23.4 6.4-34.5 8.4-11.2 2-23.8 3.6-37.9 5L228 537v.3H189v-.3l-5-.3a271.7 271.7 0 0 1-33.1-3.9 357 357 0 0 1-33.7-6c-8.2-1.9-20.3-5.7-36.4-11.2-16-5.6-29.8-11.2-41.3-17-11.4-5.5-18.5-9.1-21.4-10.6-3-1.5-6.1-3.3-9.7-5.5L3 479v-.2l-.3-.1-.1-.1-.2-.2-.6-.3-.6-.3v-.2H1l-.1-.2-.2-.2v-.2H0v-1.3l.6.1.6.2 2.7.3a361.6 361.6 0 0 0 40 1 266.5 266.5 0 0 0 60.5-10c12.7-3.3 24.4-7.3 35-12 10.6-4.7 18.2-8.1 22.7-10.5 4.4-2.2 11.2-6.4 20.4-12.6l13.7-9.2v-.2l.3-.1.1-.1.2-.2v-.2l.3-.1.1-.1.2-.2.5-.2.6-.1.2-.6.1-.6.2-.1.1-.2-4.7-.3-9.3-.6a134.4 134.4 0 0 1-34.6-9.8 158.5 158.5 0 0 1-36.5-22.3c-3-2.8-7-6.9-11.9-12.1a120.6 120.6 0 0 1-22.9-35.6l-5-10.8-.2-.9-.3-.9-.2-.6-.1-.6.9.1.9.2 6.5.9c4.4.6 11.2.8 20.6.6a159.2 159.2 0 0 0 26-2.4l1.1-.3 1.5-.3 1.5-.3.1-.2h.2l.2-.2v-.2l-1.1-.3-1.2-.3-1.2-.3-1.2-.3-1.2-.3-4.2-1.2a228.6 228.6 0 0 1-37-17.5 144 144 0 0 1-14.7-11.8c-4.6-4.3-9.8-9.8-15.3-16.6a143.2 143.2 0 0 1-24.7-49.2 138.4 138.4 0 0 1-4.3-24.7l-1.1-12.5.6.1.6.2.6.3.6.3.6.3.6.3 9.2 4.2c6.2 2.8 13.8 5.1 23 7.1 9 2 14.5 3.1 16.3 3.3l2.7.3H86l-.1-.2h-.2l-.2-.2-.1-.2-.1-.2H85l-.2-.2-.1-.2-.6-.3-.6-.3-.1-.2h-.2l-.2-.2-.1-.2-.6-.3-.6-.3-.1-.2-5.1-3.8a78.2 78.2 0 0 1-10.3-9.7c-3.6-4-7.1-8.1-10.7-12.5a96.7 96.7 0 0 1-9.6-14 169.8 169.8 0 0 1-15.7-42 144.5 144.5 0 0 1-2-42.3c.5-5.4 1.7-11.5 3.4-18.2 1.8-6.8 4.4-14 7.8-21.5l5-11.3.4-1 .3-.8.1-.1.2-.2V24l.2-.1.2.1.1.2.2.2h.1l.2.2.1.2.2.2h.1l.3.7.3.6.2.1.1.2 8 9A531.8 531.8 0 0 0 87.3 67 121.7 121.7 0 0 0 102 80.3a429 429 0 0 0 62.9 41.1 354.8 354.8 0 0 0 42.9 19.4 517 517 0 0 0 32.2 11.4c6.1 1.7 16.7 4 31.6 6.8 14.9 2.8 26 4.6 33.6 5.4 7.6.8 12.8 1.2 15.5 1.3l4.2.2-.1-1-.2-.8-1.2-7.5c-.8-5-1.2-11.9-1.2-20.8a136.8 136.8 0 0 1 16.5-66.4c2.7-4.6 6.3-10 10.7-15.9A128.5 128.5 0 0 1 390.3 18c9-5 17.2-8.7 24.7-11.3 7.6-2.6 14-4.3 19.1-5l7.7-1.4z" fill="#42C0FB"/>
</svg>